<svg width="336" height="307" viewBox="0 0 336 307" fill="none" xmlns="http://www.w3.org/2000/svg">
<path d="M52 32H320C326.075 32 331 36.9249 331 43V235C331 241.075 326.075 246 320 246H52C45.9249 246 41 241.075 41 235V43C41 36.9249 45.9249 32 52 32Z" fill="#00BDF2" stroke="#00BDF2" stroke-width="10"/>
<path d="M5 21C5 12.1634 12.1634 5 21 5H289C297.837 5 305 12.1634 305 21V213C305 221.837 297.837 229 289 229H121.5H83.5H61.5H21C12.1634 229 5 221.837 5 213V21Z" fill="#DBF9FB" stroke="#152B75" stroke-width="10" stroke-miterlimit="5.49776"/>
<path d="M69 96C110.224 153.676 175.946 150.298 211 96" stroke="#152B75" stroke-width="10" stroke-linecap="round"/>
<path d="M239 251H295V307L266.5 278L239 251Z" fill="#00BDF2"/>
<path d="M266.85 277.643L240.223 251.5H294.5V305.778L266.857 277.65L266.857 277.649L266.85 277.643Z" stroke="#00BDF2" stroke-opacity="0.976471"/>
<path d="M41 229.1C41 229.045 41.0448 229 41.1 229H96.7645C96.8528 229 96.8978 229.106 96.8365 229.169L69.5 257.5L41.1694 284.837C41.1059 284.898 41 284.853 41 284.765V229.1Z" fill="#DBF9FB" stroke="#152B75" stroke-width="10"/>
<path d="M46 229.3L84 229" stroke="#DBF9FB" stroke-width="12"/>
<path d="M83 233.5V223.5H95.5L73.5 246L83 233.5Z" fill="#DBF9FB"/>
</svg>
