<svg width="338" height="309" viewBox="0 0 338 309" fill="none" xmlns="http://www.w3.org/2000/svg">
<path d="M54 34H322C328.075 34 333 38.9249 333 45V237C333 243.075 328.075 248 322 248H54C47.9249 248 43 243.075 43 237V45C43 38.9249 47.9249 34 54 34Z" fill="#00BDF2" stroke="#00BDF2" stroke-width="10"/>
<path d="M7 23C7 14.1634 14.1634 7 23 7H291C299.837 7 307 14.1634 307 23V215C307 223.837 299.837 231 291 231H123.5H85.5H63.5H23C14.1634 231 7 223.837 7 215V23Z" fill="#DBF9FB" stroke="#152B75" stroke-width="14" stroke-miterlimit="5.49776"/>
<path d="M71 98C112.224 155.676 177.946 152.298 213 98" stroke="#152B75" stroke-width="14" stroke-linecap="round"/>
<path d="M241 253H297V309L268.5 280L241 253Z" fill="#00BDF2"/>
<path d="M268.85 279.643L242.223 253.5H296.5V307.778L268.857 279.65L268.857 279.649L268.85 279.643Z" stroke="#00BDF2" stroke-opacity="0.976471"/>
<path d="M43 231.1C43 231.045 43.0448 231 43.1 231H98.7645C98.8528 231 98.8978 231.106 98.8365 231.169L71.5 259.5L43.1694 286.837C43.1059 286.898 43 286.853 43 286.765V231.1Z" fill="#DBF9FB" stroke="#152B75" stroke-width="14"/>
<path d="M50 230.3L81.5 230.3" stroke="#DBF9FB" stroke-width="17"/>
<path d="M79 233V220.5H99.5L82.5 238L80.5 240L79 233Z" fill="#DBF9FB"/>
</svg>
